<svg xmlns="http://www.w3.org/2000/svg" viewBox="0 0 48 48"><title>19-accounting</title><g id="_19-accounting" data-name="19-accounting"><path d="M6,36H3a3,3,0,0,1-3-3V3A3,3,0,0,1,3,0H39a3,3,0,0,1,3,3V28H40V3a1,1,0,0,0-1-1H3A1,1,0,0,0,2,3V33a1,1,0,0,0,1,1H6Z"/><rect x="1" y="8" width="23" height="2"/><rect x="4" y="4" width="2" height="2"/><rect x="8" y="4" width="2" height="2"/><rect x="12" y="4" width="2" height="2"/><rect x="8" y="4" width="2" height="2"/><rect x="8" y="4" width="2" height="2"/><rect x="8" y="4" width="2" height="2"/><path d="M32,14a5,5,0,1,1,5-5A5.006,5.006,0,0,1,32,14Zm0-8a3,3,0,1,0,3,3A3,3,0,0,0,32,6Z"/><path d="M37,22H27a1,1,0,0,1-1-1V18a6,6,0,0,1,12,0v3A1,1,0,0,1,37,22Zm-9-2h8V18a4,4,0,0,0-8,0Z"/><path d="M27,35H25a3,3,0,0,1,0-6h2a3,3,0,0,1,3,3H28a1,1,0,0,0-1-1H25a1,1,0,0,0,0,2h2Z"/><path d="M27,39H25a3,3,0,0,1-3-3h2a1,1,0,0,0,1,1h2a1,1,0,0,0,0-2H25V33h2a3,3,0,0,1,0,6Z"/><rect x="25" y="28" width="2" height="2"/><rect x="25" y="38" width="2" height="2"/><path d="M39,48a.987.987,0,0,1-.383-.076A1,1,0,0,1,38,47V44H26A10.011,10.011,0,0,1,16,34H14v3a1,1,0,0,1-1.707.707l-8-8a1,1,0,0,1,0-1.414l8-8A1,1,0,0,1,14,21v3H26A10.011,10.011,0,0,1,36,34h2V31a1,1,0,0,1,1.707-.707l8,8a1,1,0,0,1,0,1.414l-8,8A1,1,0,0,1,39,48ZM13,32h4a1,1,0,0,1,1,1v1a8.009,8.009,0,0,0,8,8H39a1,1,0,0,1,1,1v1.586L45.586,39,40,33.414V35a1,1,0,0,1-1,1H35a1,1,0,0,1-1-1V34a8.009,8.009,0,0,0-8-8H13a1,1,0,0,1-1-1V23.414L6.414,29,12,34.586V33A1,1,0,0,1,13,32Z"/><rect x="11" y="12" width="13" height="2"/><rect x="5" y="16" width="19" height="2"/><rect x="7" y="12" width="2" height="2"/></g></svg>